<?xml version="1.0" encoding="UTF-8" standalone="no"?>
<!-- Created with Inkscape (http://www.inkscape.org/) -->

<svg
   width="30.48mm"
   height="128.5mm"
   viewBox="0 0 30.480002 128.50002"
   version="1.1"
   id="svg8"
   inkscape:version="1.2.1 (9c6d41e, 2022-07-14)"
   sodipodi:docname="EucQuant.svg"
   xmlns:inkscape="http://www.inkscape.org/namespaces/inkscape"
   xmlns:sodipodi="http://sodipodi.sourceforge.net/DTD/sodipodi-0.dtd"
   xmlns="http://www.w3.org/2000/svg"
   xmlns:svg="http://www.w3.org/2000/svg"
   xmlns:rdf="http://www.w3.org/1999/02/22-rdf-syntax-ns#"
   xmlns:cc="http://creativecommons.org/ns#"
   xmlns:dc="http://purl.org/dc/elements/1.1/">
  <defs
     id="defs2" />
  <sodipodi:namedview
     id="base"
     pagecolor="#ffffff"
     bordercolor="#666666"
     borderopacity="1.0"
     inkscape:pageopacity="0.0"
     inkscape:pageshadow="2"
     inkscape:zoom="1.2797037"
     inkscape:cx="-7.8143086"
     inkscape:cy="242.24357"
     inkscape:document-units="mm"
     inkscape:current-layer="layer1"
     showgrid="false"
     units="mm"
     inkscape:snap-bbox="true"
     inkscape:snap-page="true"
     inkscape:bbox-nodes="false"
     inkscape:snap-bbox-edge-midpoints="false"
     inkscape:window-width="795"
     inkscape:window-height="900"
     inkscape:window-x="0"
     inkscape:window-y="38"
     inkscape:window-maximized="0"
     inkscape:snap-bbox-midpoints="true"
     inkscape:snap-nodes="false"
     inkscape:showpageshadow="2"
     inkscape:pagecheckerboard="0"
     inkscape:deskcolor="#d1d1d1" />
  <metadata
     id="metadata5">
    <rdf:RDF>
      <cc:Work
         rdf:about="">
        <dc:format>image/svg+xml</dc:format>
        <dc:type
           rdf:resource="http://purl.org/dc/dcmitype/StillImage" />
        <dc:title />
      </cc:Work>
    </rdf:RDF>
  </metadata>
  <g
     inkscape:label="Layer 1"
     inkscape:groupmode="layer"
     id="layer1"
     transform="translate(0,-168.49998)">
    <rect
       style="display:inline;opacity:1;vector-effect:none;fill:#e6e6e6;fill-opacity:1;fill-rule:evenodd;stroke:none;stroke-width:0.64935839;stroke-linecap:butt;stroke-linejoin:miter;stroke-miterlimit:4;stroke-dasharray:none;stroke-dashoffset:0;stroke-opacity:1;paint-order:normal"
       id="rect420"
       width="30.48"
       height="128.5"
       x="5.9211732e-17"
       y="168.49997" />
    <g
       aria-label="Sine"
       style="font-style:normal;font-variant:normal;font-weight:300;font-stretch:normal;font-size:4.93888855px;line-height:6.61458302px;font-family:'Gotham Rounded';-inkscape-font-specification:'Gotham Rounded Light';font-variant-ligatures:normal;font-variant-caps:normal;font-variant-numeric:normal;font-feature-settings:normal;text-align:center;letter-spacing:0px;word-spacing:0px;writing-mode:lr-tb;text-anchor:middle;display:inline;fill:#000000;fill-opacity:1;stroke:none;stroke-width:0.26458332px;stroke-linecap:butt;stroke-linejoin:miter;stroke-opacity:1"
       id="text4952"
       inkscape:label="text4952" />
    <g
       aria-label="EucQuant"
       id="text398"
       style="font-size:4.23333px;display:inline;stroke-width:0.264583">
      <path
         d="M 6.8484096,177.67918 H 4.6221908 v -3.07784 h 2.2262188 v 0.59531 H 5.411806 v 0.53123 h 1.3332508 v 0.59532 H 5.411806 v 0.76067 h 1.4366036 z"
         style="font-weight:bold"
         id="path673" />
      <path
         d="m 9.7856955,177.67918 h -0.74414 v -0.25631 q -0.2067056,0.1571 -0.3782712,0.23978 -0.1715656,0.0806 -0.409277,0.0806 -0.3844723,0 -0.5932449,-0.22117 -0.2067056,-0.22118 -0.2067056,-0.65319 v -1.51102 h 0.7482741 v 1.15135 q 0,0.1757 0.010335,0.29352 0.012402,0.11576 0.053744,0.19224 0.039274,0.0765 0.1178221,0.11162 0.080615,0.0351 0.223242,0.0351 0.095085,0 0.2108397,-0.0351 0.1157551,-0.0351 0.223242,-0.10335 v -1.64538 h 0.74414 z"
         style="font-weight:bold"
         id="path675" />
      <path
         d="m 11.697722,177.7412 q -0.303857,0 -0.556038,-0.0724 -0.250114,-0.0724 -0.436149,-0.22324 -0.183968,-0.1509 -0.285253,-0.38034 -0.101286,-0.22944 -0.101286,-0.53744 0,-0.32452 0.107487,-0.56017 0.109554,-0.23564 0.303857,-0.39067 0.188102,-0.14676 0.434082,-0.21498 0.245979,-0.0682 0.510562,-0.0682 0.237712,0 0.438216,0.0517 0.200504,0.0517 0.374137,0.13436 v 0.63458 h -0.10542 q -0.04341,-0.0372 -0.10542,-0.0868 -0.05994,-0.0496 -0.148828,-0.0972 -0.08475,-0.0455 -0.186035,-0.0744 -0.101285,-0.031 -0.235644,-0.031 -0.297656,0 -0.458886,0.19016 -0.159163,0.18811 -0.159163,0.51263 0,0.33487 0.163297,0.5085 0.165364,0.17363 0.467154,0.17363 0.14056,0 0.252181,-0.031 0.113688,-0.0331 0.188102,-0.0765 0.07028,-0.0414 0.124024,-0.0868 0.05374,-0.0455 0.09922,-0.0889 h 0.10542 v 0.63458 q -0.1757,0.0827 -0.367936,0.13023 -0.190169,0.0496 -0.421679,0.0496 z"
         style="font-weight:bold"
         id="path677" />
      <path
         d="m 14.961603,176.92057 q 0.115755,-0.14056 0.171566,-0.33072 0.05581,-0.19224 0.05581,-0.45062 0,-0.27699 -0.06408,-0.47129 -0.06408,-0.1943 -0.167431,-0.31419 -0.10542,-0.12403 -0.243913,-0.17984 -0.136425,-0.0558 -0.285253,-0.0558 -0.150895,0 -0.285254,0.0538 -0.132292,0.0537 -0.243913,0.17776 -0.103352,0.11576 -0.169498,0.3204 -0.06408,0.20257 -0.06408,0.47128 0,0.27492 0.06201,0.46923 0.06408,0.19223 0.167431,0.31419 0.103353,0.12195 0.241846,0.17983 0.138493,0.0579 0.291455,0.0579 0.152962,0 0.291454,-0.0579 0.138493,-0.0599 0.241846,-0.18397 z m 0.08475,0.72141 q 0.0083,0.20464 0.111621,0.29352 0.103353,0.0889 0.353467,0.0889 0.08475,0 0.200504,-0.0289 0.115755,-0.0289 0.16123,-0.0517 h 0.07855 v 0.5457 q -0.115756,0.0269 -0.252181,0.0475 -0.134359,0.0207 -0.413411,0.0207 -0.24598,0 -0.429948,-0.062 -0.181901,-0.0599 -0.303857,-0.17156 -0.119889,-0.10956 -0.179834,-0.25839 -0.05994,-0.14882 -0.07028,-0.33073 -0.690396,-0.0393 -1.076936,-0.46095 -0.384472,-0.42375 -0.384472,-1.13275 0,-0.74207 0.421679,-1.17202 0.42168,-0.43201 1.163753,-0.43201 0.740005,0 1.163752,0.43201 0.423746,0.42995 0.423746,1.17202 0,0.54777 -0.248046,0.94672 -0.248047,0.39687 -0.719336,0.55397 z"
         style="font-weight:bold"
         id="path679" />
      <path
         d="m 18.891075,177.67918 h -0.74414 v -0.25631 q -0.206705,0.1571 -0.378271,0.23978 -0.171565,0.0806 -0.409277,0.0806 -0.384472,0 -0.593245,-0.22117 -0.206705,-0.22118 -0.206705,-0.65319 v -1.51102 h 0.748274 v 1.15135 q 0,0.1757 0.01033,0.29352 0.0124,0.11576 0.05374,0.19224 0.03927,0.0765 0.117823,0.11162 0.08061,0.0351 0.223242,0.0351 0.09508,0 0.210839,-0.0351 0.115755,-0.0351 0.223242,-0.10335 v -1.64538 h 0.74414 z"
         style="font-weight:bold"
         id="path681" />
      <path
         d="m 20.999472,177.07354 v -0.48369 q -0.150895,0.0124 -0.326595,0.0351 -0.1757,0.0207 -0.26665,0.0496 -0.111621,0.0351 -0.171566,0.10336 -0.05788,0.0661 -0.05788,0.1757 0,0.0723 0.0124,0.11782 0.0124,0.0455 0.06201,0.0868 0.04754,0.0413 0.113688,0.062 0.06615,0.0186 0.206705,0.0186 0.111621,0 0.225309,-0.0455 0.115755,-0.0455 0.202572,-0.11989 z m 0,0.35966 q -0.05995,0.0455 -0.148828,0.10956 -0.08888,0.0641 -0.167432,0.10128 -0.109554,0.0496 -0.227376,0.0724 -0.117822,0.0248 -0.258382,0.0248 -0.330729,0 -0.553971,-0.20464 -0.223242,-0.20464 -0.223242,-0.52297 0,-0.25425 0.113688,-0.41548 0.113688,-0.16123 0.322461,-0.25424 0.206706,-0.093 0.51263,-0.1323 0.305924,-0.0393 0.634586,-0.0579 v -0.0124 q 0,-0.19223 -0.157096,-0.26458 -0.157097,-0.0744 -0.463021,-0.0744 -0.183968,0 -0.39274,0.0661 -0.208773,0.0641 -0.299723,0.0992 h -0.06821 v -0.56017 q 0.117822,-0.031 0.382405,-0.0724 0.26665,-0.0434 0.5333,-0.0434 0.634586,0 0.915706,0.19638 0.283187,0.1943 0.283187,0.61184 v 1.57923 h -0.737939 z"
         style="font-weight:bold"
         id="path683" />
      <path
         d="m 24.753246,177.67918 h -0.748274 v -1.15135 q 0,-0.14056 -0.01447,-0.27905 -0.01447,-0.14056 -0.04961,-0.2067 -0.04134,-0.0765 -0.121956,-0.11163 -0.07855,-0.0351 -0.221175,-0.0351 -0.101286,0 -0.206706,0.0331 -0.103353,0.0331 -0.225309,0.10542 v 1.64537 h -0.74414 v -2.3213 h 0.74414 v 0.25632 q 0.198437,-0.15503 0.380338,-0.23772 0.183968,-0.0827 0.40721,-0.0827 0.376204,0 0.587044,0.21911 0.212907,0.21911 0.212907,0.65526 z"
         style="font-weight:bold"
         id="path685" />
      <path
         d="m 26.921586,177.65851 q -0.119889,0.031 -0.254248,0.0476 -0.134359,0.0186 -0.328662,0.0186 -0.434082,0 -0.646988,-0.1757 -0.21084,-0.1757 -0.21084,-0.60151 v -1.08521 h -0.305924 v -0.50436 h 0.305924 v -0.66352 h 0.74414 v 0.66352 h 0.696598 v 0.50436 h -0.696598 v 0.82269 q 0,0.12196 0.0021,0.21291 0.0021,0.0909 0.03307,0.16329 0.02894,0.0724 0.101286,0.11576 0.07441,0.0413 0.214974,0.0413 0.05788,0 0.150895,-0.0248 0.09508,-0.0248 0.132291,-0.0455 h 0.06201 z"
         style="font-weight:bold"
         id="path687" />
    </g>
    <g
       aria-label="Input"
       id="text452"
       style="font-size:3.88056px;stroke-width:0.264583">
      <path
         d="M 11.297905,199.78632 H 10.18376 v -0.28801 h 0.369487 v -2.24535 H 10.18376 v -0.28801 h 1.114145 v 0.28801 h -0.369487 v 2.24535 h 0.369487 z"
         id="path690" />
      <path
         d="m 13.677779,199.78632 h -0.356223 v -1.2051 q 0,-0.1459 -0.01705,-0.27285 -0.01705,-0.12885 -0.06253,-0.20085 -0.04737,-0.0796 -0.136426,-0.11748 -0.08906,-0.0398 -0.231166,-0.0398 -0.1459,0 -0.305063,0.072 -0.159164,0.072 -0.305064,0.1838 v 1.58027 h -0.356223 v -2.1165 h 0.356223 v 0.23495 q 0.166743,-0.13832 0.344855,-0.216 0.178111,-0.0777 0.365697,-0.0777 0.34296,0 0.522966,0.20653 0.180006,0.20654 0.180006,0.59497 z"
         id="path692" />
      <path
         d="m 16.226292,198.70249 q 0,0.25769 -0.0739,0.4718 -0.0739,0.21222 -0.208428,0.36002 -0.125057,0.14021 -0.29559,0.2179 -0.168637,0.0758 -0.358118,0.0758 -0.164848,0 -0.299379,-0.036 -0.132636,-0.036 -0.270957,-0.11179 v 0.88677 h -0.356223 v -2.89716 h 0.356223 v 0.22169 q 0.14211,-0.11937 0.318327,-0.19895 0.178112,-0.0815 0.378961,-0.0815 0.382751,0 0.594969,0.28991 0.214113,0.28801 0.214113,0.8015 z m -0.367593,0.009 q 0,-0.38275 -0.130741,-0.57223 -0.130742,-0.18948 -0.401699,-0.18948 -0.153479,0 -0.308853,0.0663 -0.155374,0.0663 -0.297484,0.17432 v 1.19941 q 0.151584,0.0682 0.259588,0.0928 0.109899,0.0246 0.24822,0.0246 0.297484,0 0.464227,-0.20085 0.166742,-0.20085 0.166742,-0.59497 z"
         id="path694" />
      <path
         d="m 18.536059,199.78632 h -0.356224 v -0.23496 q -0.180006,0.14211 -0.344854,0.2179 -0.164848,0.0758 -0.363803,0.0758 -0.333485,0 -0.519176,-0.20274 -0.185691,-0.20464 -0.185691,-0.59876 v -1.37373 h 0.356223 v 1.20509 q 0,0.16106 0.01516,0.27665 0.01516,0.11368 0.06442,0.19516 0.05116,0.0834 0.132636,0.12127 0.08148,0.0379 0.236851,0.0379 0.138321,0 0.301274,-0.072 0.164848,-0.072 0.306958,-0.18379 v -1.58027 h 0.356224 z"
         id="path696" />
      <path
         d="m 20.336123,199.76737 q -0.100424,0.0265 -0.219797,0.0436 -0.117478,0.0171 -0.210323,0.0171 -0.324012,0 -0.49265,-0.17432 -0.168637,-0.17432 -0.168637,-0.55897 v -1.12551 h -0.24064 v -0.29938 h 0.24064 v -0.60823 h 0.356223 v 0.60823 h 0.735184 v 0.29938 h -0.735184 v 0.96445 q 0,0.16675 0.0076,0.26149 0.0076,0.0928 0.05306,0.17432 0.04169,0.0758 0.113688,0.11179 0.0739,0.0341 0.223587,0.0341 0.08716,0 0.181901,-0.0246 0.09474,-0.0265 0.136426,-0.0436 h 0.01895 z"
         id="path698" />
    </g>
    <g
       aria-label="Output"
       id="text452-4"
       style="font-size:3.88056px;stroke-width:0.264583">
      <path
         d="m 11.181103,280.94421 q 0.172427,0.18948 0.263378,0.46422 0.09285,0.27475 0.09285,0.62339 0,0.34865 -0.09474,0.62529 -0.09285,0.27475 -0.261483,0.45854 -0.174322,0.19138 -0.413068,0.28801 -0.23685,0.0966 -0.541914,0.0966 -0.297484,0 -0.5419138,-0.0985 -0.242535,-0.0985 -0.4130674,-0.28612 -0.1705324,-0.18758 -0.2633778,-0.46044 -0.090951,-0.27285 -0.090951,-0.62339 0,-0.34485 0.090951,-0.6177 0.090951,-0.27475 0.2652726,-0.46991 0.1667428,-0.18569 0.4130674,-0.28422 0.2482194,-0.0985 0.540019,-0.0985 0.303169,0 0.543809,0.10042 0.242535,0.0985 0.411173,0.28233 z m -0.03411,1.08761 q 0,-0.54949 -0.246324,-0.84697 -0.246325,-0.29938 -0.672656,-0.29938 -0.4301205,0 -0.6764451,0.29938 -0.2444298,0.29748 -0.2444298,0.84697 0,0.55518 0.2501142,0.85077 0.2501142,0.2937 0.6707607,0.2937 0.420647,0 0.668866,-0.2937 0.250114,-0.29559 0.250114,-0.85077 z"
         id="path701" />
      <path
         d="m 13.858462,283.44156 h -0.356224 v -0.23496 q -0.180006,0.14211 -0.344854,0.21791 -0.164848,0.0758 -0.363802,0.0758 -0.333486,0 -0.519177,-0.20275 -0.185691,-0.20464 -0.185691,-0.59875 v -1.37374 h 0.356224 v 1.2051 q 0,0.16106 0.01516,0.27664 0.01516,0.11369 0.06442,0.19516 0.05116,0.0834 0.132637,0.12127 0.08148,0.0379 0.23685,0.0379 0.138321,0 0.301274,-0.072 0.164848,-0.072 0.306958,-0.1838 v -1.58027 h 0.356224 z"
         id="path703" />
      <path
         d="m 15.658526,283.42261 q -0.100425,0.0265 -0.219797,0.0436 -0.117478,0.0171 -0.210324,0.0171 -0.324011,0 -0.492649,-0.17432 -0.168637,-0.17432 -0.168637,-0.55896 v -1.12552 h -0.240641 v -0.29938 h 0.240641 v -0.60823 h 0.356223 v 0.60823 h 0.735184 v 0.29938 h -0.735184 v 0.96446 q 0,0.16674 0.0076,0.26148 0.0076,0.0929 0.05306,0.17432 0.04168,0.0758 0.113688,0.1118 0.0739,0.0341 0.223587,0.0341 0.08716,0 0.181901,-0.0246 0.09474,-0.0265 0.136426,-0.0436 h 0.01895 z"
         id="path705" />
      <path
         d="m 17.95124,282.35773 q 0,0.25769 -0.0739,0.47181 -0.0739,0.21222 -0.208428,0.36001 -0.125057,0.14022 -0.29559,0.2179 -0.168638,0.0758 -0.358118,0.0758 -0.164848,0 -0.299379,-0.036 -0.132636,-0.036 -0.270957,-0.11179 v 0.88677 h -0.356223 v -2.89716 h 0.356223 v 0.22169 q 0.14211,-0.11937 0.318327,-0.19895 0.178112,-0.0815 0.378961,-0.0815 0.38275,0 0.594969,0.28991 0.214113,0.28801 0.214113,0.8015 z m -0.367593,0.009 q 0,-0.38275 -0.130741,-0.57223 -0.130742,-0.18948 -0.401699,-0.18948 -0.153479,0 -0.308853,0.0663 -0.155374,0.0663 -0.297484,0.17432 v 1.19941 q 0.151584,0.0682 0.259588,0.0928 0.109899,0.0246 0.248219,0.0246 0.297485,0 0.464228,-0.20085 0.166742,-0.20085 0.166742,-0.59497 z"
         id="path707" />
      <path
         d="m 20.261007,283.44156 h -0.356223 v -0.23496 q -0.180007,0.14211 -0.344855,0.21791 -0.164848,0.0758 -0.363802,0.0758 -0.333486,0 -0.519177,-0.20275 -0.185691,-0.20464 -0.185691,-0.59875 v -1.37374 h 0.356224 v 1.2051 q 0,0.16106 0.01516,0.27664 0.01516,0.11369 0.06442,0.19516 0.05116,0.0834 0.132636,0.12127 0.08148,0.0379 0.23685,0.0379 0.138321,0 0.301274,-0.072 0.164848,-0.072 0.306959,-0.1838 v -1.58027 h 0.356223 z"
         id="path709" />
      <path
         d="m 22.061071,283.42261 q -0.100425,0.0265 -0.219797,0.0436 -0.117478,0.0171 -0.210324,0.0171 -0.324011,0 -0.492649,-0.17432 -0.168637,-0.17432 -0.168637,-0.55896 v -1.12552 h -0.240641 v -0.29938 h 0.240641 v -0.60823 h 0.356223 v 0.60823 h 0.735184 v 0.29938 h -0.735184 v 0.96446 q 0,0.16674 0.0076,0.26148 0.0076,0.0929 0.05305,0.17432 0.04169,0.0758 0.113688,0.1118 0.0739,0.0341 0.223587,0.0341 0.08716,0 0.181901,-0.0246 0.09474,-0.0265 0.136426,-0.0436 h 0.01895 z"
         id="path711" />
    </g>
    <g
       aria-label="Divisions"
       id="text546"
       style="font-size:3.88056px;stroke-width:0.264583">
      <path
         d="m 9.494399,220.02105 q 0,0.38465 -0.1686376,0.69729 -0.1667428,0.31265 -0.4452791,0.48507 -0.19327,0.11937 -0.4320154,0.17243 -0.2368506,0.053 -0.6252856,0.053 H 7.1107348 v -2.82136 h 0.7048673 q 0.4130674,0 0.6556024,0.0606 0.2444298,0.0587 0.4130674,0.16296 0.2880103,0.18 0.4490687,0.47938 0.1610584,0.29938 0.1610584,0.71055 z m -0.3922245,-0.006 q 0,-0.33159 -0.1155831,-0.55897 -0.1155831,-0.22737 -0.3448545,-0.35812 -0.1667428,-0.0947 -0.3543284,-0.13074 -0.1875857,-0.0379 -0.4490687,-0.0379 H 7.4859061 v 2.17713 h 0.3524337 q 0.270957,0 0.4718063,-0.0398 0.2027441,-0.0398 0.3713817,-0.1478 0.2103234,-0.13453 0.3145376,-0.35433 0.1061091,-0.21979 0.1061091,-0.54949 z"
         id="path714" />
      <path
         d="m 10.455065,218.95807 h -0.401699 v -0.36949 h 0.401699 z m -0.02274,2.47082 h -0.356223 v -2.11649 h 0.356223 z"
         id="path716" />
      <path
         d="m 12.967576,219.3124 -0.856452,2.11649 h -0.358118 l -0.850767,-2.11649 h 0.38654 l 0.655603,1.68448 0.649918,-1.68448 z"
         id="path718" />
      <path
         d="M 13.816448,218.95807 H 13.41475 v -0.36949 h 0.401698 z m -0.02274,2.47082 h -0.356224 v -2.11649 h 0.356224 z"
         id="path720" />
      <path
         d="m 16.010632,220.81877 q 0,0.2899 -0.24064,0.47559 -0.238745,0.18569 -0.653707,0.18569 -0.234956,0 -0.432016,-0.055 -0.195165,-0.0568 -0.327801,-0.12316 v -0.3998 h 0.01895 q 0.168638,0.12695 0.375171,0.20274 0.206534,0.0739 0.396014,0.0739 0.234956,0 0.367592,-0.0758 0.132637,-0.0758 0.132637,-0.23875 0,-0.12505 -0.072,-0.18948 -0.072,-0.0644 -0.276641,-0.1099 -0.07579,-0.0171 -0.198955,-0.0398 -0.121267,-0.0227 -0.221692,-0.0493 -0.278536,-0.0739 -0.396014,-0.21601 -0.115583,-0.14401 -0.115583,-0.35243 0,-0.13075 0.05305,-0.24633 0.05495,-0.11558 0.164848,-0.20653 0.106109,-0.0891 0.269063,-0.14022 0.164848,-0.0531 0.367592,-0.0531 0.18948,0 0.38275,0.0474 0.195165,0.0455 0.324012,0.11179 v 0.38086 h -0.01895 q -0.136426,-0.10043 -0.331591,-0.16864 -0.195165,-0.0701 -0.38275,-0.0701 -0.195165,0 -0.329697,0.0758 -0.134531,0.0739 -0.134531,0.2217 0,0.13074 0.08148,0.19706 0.07958,0.0663 0.257693,0.108 0.09853,0.0227 0.219798,0.0455 0.123162,0.0227 0.204639,0.0417 0.248219,0.0568 0.38275,0.19517 0.134531,0.14021 0.134531,0.37138 z"
         id="path722" />
      <path
         d="m 16.903086,218.95807 h -0.401699 v -0.36949 h 0.401699 z m -0.02274,2.47082 h -0.356223 v -2.11649 h 0.356223 z"
         id="path724" />
      <path
         d="m 19.389069,220.37159 q 0,0.51728 -0.265273,0.81666 -0.265273,0.29938 -0.710552,0.29938 -0.449068,0 -0.714341,-0.29938 -0.263378,-0.29938 -0.263378,-0.81666 0,-0.51728 0.263378,-0.81666 0.265273,-0.30127 0.714341,-0.30127 0.445279,0 0.710552,0.30127 0.265273,0.29938 0.265273,0.81666 z m -0.367592,0 q 0,-0.41117 -0.161059,-0.61012 -0.161058,-0.20085 -0.447174,-0.20085 -0.289905,0 -0.450963,0.20085 -0.159164,0.19895 -0.159164,0.61012 0,0.39791 0.161059,0.60445 0.161058,0.20463 0.449068,0.20463 0.284221,0 0.445279,-0.20274 0.162954,-0.20464 0.162954,-0.60634 z"
         id="path726" />
      <path
         d="m 21.710205,221.42889 h -0.356223 v -1.20509 q 0,-0.1459 -0.01705,-0.27285 -0.01705,-0.12885 -0.06253,-0.20085 -0.04737,-0.0796 -0.136426,-0.11748 -0.08906,-0.0398 -0.231166,-0.0398 -0.1459,0 -0.305064,0.072 -0.159163,0.072 -0.305063,0.1838 v 1.58026 h -0.356224 v -2.11649 h 0.356224 v 0.23495 q 0.166743,-0.13832 0.344854,-0.216 0.178112,-0.0777 0.365697,-0.0777 0.34296,0 0.522967,0.20653 0.180006,0.20654 0.180006,0.59497 z"
         id="path728" />
      <path
         d="m 23.908178,220.81877 q 0,0.2899 -0.24064,0.47559 -0.238745,0.18569 -0.653708,0.18569 -0.234955,0 -0.432015,-0.055 -0.195165,-0.0568 -0.327801,-0.12316 v -0.3998 h 0.01895 q 0.168637,0.12695 0.375171,0.20274 0.206534,0.0739 0.396014,0.0739 0.234956,0 0.367592,-0.0758 0.132637,-0.0758 0.132637,-0.23875 0,-0.12505 -0.072,-0.18948 -0.072,-0.0644 -0.276641,-0.1099 -0.07579,-0.0171 -0.198955,-0.0398 -0.121267,-0.0227 -0.221692,-0.0493 -0.278536,-0.0739 -0.396014,-0.21601 -0.115583,-0.14401 -0.115583,-0.35243 0,-0.13075 0.05305,-0.24633 0.05495,-0.11558 0.164848,-0.20653 0.106109,-0.0891 0.269062,-0.14022 0.164848,-0.0531 0.367593,-0.0531 0.18948,0 0.38275,0.0474 0.195165,0.0455 0.324012,0.11179 v 0.38086 h -0.01895 q -0.136426,-0.10043 -0.331591,-0.16864 -0.195165,-0.0701 -0.382751,-0.0701 -0.195165,0 -0.329696,0.0758 -0.134531,0.0739 -0.134531,0.2217 0,0.13074 0.08148,0.19706 0.07958,0.0663 0.257693,0.108 0.09853,0.0227 0.219798,0.0455 0.123162,0.0227 0.204638,0.0417 0.24822,0.0568 0.382751,0.19517 0.134531,0.14021 0.134531,0.37138 z"
         id="path730" />
    </g>
    <g
       aria-label="Levels"
       id="text546-0"
       style="font-size:3.88056px;stroke-width:0.264583">
      <path
         d="M 11.331781,241.01399 H 9.5468753 v -2.82136 h 0.3751713 v 2.48788 h 1.4097344 z"
         id="path733" />
      <path
         d="m 13.450173,239.99269 h -1.559424 q 0,0.19517 0.05874,0.34107 0.05874,0.144 0.161058,0.23685 0.09853,0.091 0.233061,0.13642 0.136426,0.0455 0.299379,0.0455 0.216008,0 0.43391,-0.0853 0.219798,-0.0872 0.312643,-0.17053 h 0.01895 v 0.38844 q -0.180006,0.0758 -0.367592,0.12695 -0.187586,0.0512 -0.394119,0.0512 -0.526756,0 -0.822345,-0.28422 -0.29559,-0.28612 -0.29559,-0.81098 0,-0.51918 0.282326,-0.82424 0.284221,-0.30506 0.746553,-0.30506 0.428226,0 0.659392,0.25011 0.233061,0.25011 0.233061,0.71055 z m -0.346749,-0.27285 q -0.0019,-0.28043 -0.142111,-0.43391 -0.13832,-0.15348 -0.422541,-0.15348 -0.286116,0 -0.456648,0.16864 -0.168638,0.16864 -0.191375,0.41875 z"
         id="path735" />
      <path
         d="m 15.820573,238.8975 -0.856451,2.11649 h -0.358118 l -0.850768,-2.11649 h 0.38654 l 0.655603,1.68448 0.649918,-1.68448 z"
         id="path737" />
      <path
         d="m 18.024232,239.99269 h -1.559425 q 0,0.19517 0.05874,0.34107 0.05874,0.144 0.161059,0.23685 0.09853,0.091 0.233061,0.13642 0.136426,0.0455 0.299379,0.0455 0.216008,0 0.43391,-0.0853 0.219798,-0.0872 0.312643,-0.17053 h 0.01895 v 0.38844 q -0.180006,0.0758 -0.367592,0.12695 -0.187586,0.0512 -0.394119,0.0512 -0.526756,0 -0.822346,-0.28422 -0.295589,-0.28612 -0.295589,-0.81098 0,-0.51918 0.282326,-0.82424 0.28422,-0.30506 0.746553,-0.30506 0.428226,0 0.659392,0.25011 0.233061,0.25011 0.233061,0.71055 z m -0.34675,-0.27285 q -0.0019,-0.28043 -0.14211,-0.43391 -0.138321,-0.15348 -0.422541,-0.15348 -0.286116,0 -0.456648,0.16864 -0.168638,0.16864 -0.191376,0.41875 z"
         id="path739" />
      <path
         d="M 18.924263,241.01399 H 18.56804 v -2.94831 h 0.356223 z"
         id="path741" />
      <path
         d="m 21.141185,240.40387 q 0,0.2899 -0.24064,0.47559 -0.238745,0.18569 -0.653708,0.18569 -0.234955,0 -0.432015,-0.0549 -0.195165,-0.0568 -0.327801,-0.12316 v -0.3998 h 0.01895 q 0.168637,0.12695 0.375171,0.20274 0.206534,0.0739 0.396014,0.0739 0.234956,0 0.367592,-0.0758 0.132637,-0.0758 0.132637,-0.23875 0,-0.12506 -0.072,-0.18948 -0.072,-0.0644 -0.276641,-0.1099 -0.07579,-0.017 -0.198955,-0.0398 -0.121267,-0.0227 -0.221692,-0.0493 -0.278536,-0.0739 -0.396014,-0.21601 -0.115583,-0.14401 -0.115583,-0.35244 0,-0.13074 0.05305,-0.24632 0.05495,-0.11558 0.164848,-0.20653 0.106109,-0.0891 0.269062,-0.14022 0.164848,-0.0531 0.367593,-0.0531 0.18948,0 0.38275,0.0474 0.195165,0.0455 0.324012,0.11179 v 0.38086 h -0.01895 q -0.136426,-0.10043 -0.331591,-0.16864 -0.195165,-0.0701 -0.382751,-0.0701 -0.195165,0 -0.329696,0.0758 -0.134531,0.0739 -0.134531,0.22169 0,0.13075 0.08148,0.19706 0.07958,0.0663 0.257693,0.10801 0.09853,0.0227 0.219798,0.0455 0.123162,0.0227 0.204638,0.0417 0.24822,0.0568 0.382751,0.19516 0.134531,0.14022 0.134531,0.37139 z"
         id="path743" />
    </g>
    <g
       aria-label="Rotation"
       id="text546-0-8"
       style="font-size:3.88056px;stroke-width:0.264583">
      <path
         d="M 10.571922,262.78091 H 10.084957 L 9.1413447,261.65919 H 8.6126942 v 1.12172 H 8.2375229 v -2.82136 h 0.7901336 q 0.2557986,0 0.426331,0.0341 0.1705324,0.0322 0.3069584,0.11747 0.1534791,0.0966 0.2387453,0.24443 0.087161,0.1459 0.087161,0.37139 0,0.30506 -0.1534789,0.51159 -0.1534792,0.20464 -0.4225415,0.30886 z m -0.8772943,-2.02744 q 0,-0.12126 -0.04358,-0.21411 -0.041686,-0.0947 -0.1402156,-0.15916 -0.081477,-0.055 -0.19327,-0.0758 -0.1117935,-0.0227 -0.2633779,-0.0227 H 8.6126942 v 1.06488 h 0.378961 q 0.1781116,0 0.3107479,-0.0303 0.1326364,-0.0322 0.2254818,-0.11748 0.085266,-0.0796 0.1250571,-0.1819 0.041686,-0.10421 0.041686,-0.26338 z"
         id="path746" />
      <path
         d="m 12.616416,261.72361 q 0,0.51728 -0.265272,0.81666 -0.265273,0.29938 -0.710552,0.29938 -0.449069,0 -0.714341,-0.29938 -0.263378,-0.29938 -0.263378,-0.81666 0,-0.51728 0.263378,-0.81666 0.265272,-0.30127 0.714341,-0.30127 0.445279,0 0.710552,0.30127 0.265272,0.29938 0.265272,0.81666 z m -0.367592,0 q 0,-0.41117 -0.161058,-0.61012 -0.161059,-0.20085 -0.447174,-0.20085 -0.289905,0 -0.450964,0.20085 -0.159163,0.19895 -0.159163,0.61012 0,0.39791 0.161058,0.60445 0.161059,0.20463 0.449069,0.20463 0.284221,0 0.445279,-0.20274 0.162953,-0.20464 0.162953,-0.60634 z"
         id="path748" />
      <path
         d="m 14.266792,262.76197 q -0.100425,0.0265 -0.219798,0.0436 -0.117478,0.0171 -0.210323,0.0171 -0.324012,0 -0.492649,-0.17432 -0.168638,-0.17432 -0.168638,-0.55897 v -1.12551 h -0.24064 v -0.29938 h 0.24064 v -0.60823 h 0.356223 v 0.60823 h 0.735185 v 0.29938 h -0.735185 v 0.96445 q 0,0.16675 0.0076,0.26149 0.0076,0.0928 0.05305,0.17432 0.04169,0.0758 0.113688,0.11179 0.0739,0.0341 0.223587,0.0341 0.08716,0 0.181902,-0.0246 0.09474,-0.0265 0.136425,-0.0436 h 0.01895 z"
         id="path750" />
      <path
         d="m 16.341602,262.78091 h -0.354328 v -0.22548 q -0.04737,0.0322 -0.128847,0.091 -0.07958,0.0568 -0.155374,0.0909 -0.08906,0.0436 -0.204639,0.072 -0.115583,0.0303 -0.270957,0.0303 -0.286115,0 -0.48507,-0.18948 -0.198954,-0.18948 -0.198954,-0.48317 0,-0.24064 0.102319,-0.38844 0.104214,-0.14969 0.29559,-0.23495 0.19327,-0.0853 0.464227,-0.11559 0.270957,-0.0303 0.581705,-0.0455 v -0.0549 q 0,-0.12127 -0.04358,-0.20085 -0.04168,-0.0796 -0.121267,-0.12506 -0.07579,-0.0436 -0.181901,-0.0587 -0.106109,-0.0152 -0.221692,-0.0152 -0.140216,0 -0.312643,0.0379 -0.172427,0.036 -0.356224,0.10611 h -0.01895 v -0.36191 q 0.104215,-0.0284 0.301274,-0.0625 0.19706,-0.0341 0.388435,-0.0341 0.223587,0 0.388435,0.0379 0.166743,0.036 0.288011,0.12506 0.119372,0.0872 0.181901,0.22548 0.06253,0.13832 0.06253,0.34296 z m -0.354328,-0.52107 v -0.58928 q -0.162953,0.009 -0.384645,0.0284 -0.219798,0.019 -0.348644,0.055 -0.15348,0.0436 -0.24822,0.13643 -0.09474,0.091 -0.09474,0.25201 0,0.1819 0.109899,0.27474 0.109898,0.091 0.33538,0.091 0.187586,0 0.34296,-0.072 0.155374,-0.0739 0.28801,-0.17622 z"
         id="path752" />
      <path
         d="m 18.126508,262.76197 q -0.100425,0.0265 -0.219797,0.0436 -0.117478,0.0171 -0.210324,0.0171 -0.324011,0 -0.492649,-0.17432 -0.168638,-0.17432 -0.168638,-0.55897 v -1.12551 h -0.24064 v -0.29938 h 0.24064 v -0.60823 h 0.356224 v 0.60823 h 0.735184 v 0.29938 h -0.735184 v 0.96445 q 0,0.16675 0.0076,0.26149 0.0076,0.0928 0.05306,0.17432 0.04168,0.0758 0.113688,0.11179 0.0739,0.0341 0.223587,0.0341 0.08716,0 0.181901,-0.0246 0.09474,-0.0265 0.136426,-0.0436 h 0.01895 z"
         id="path754" />
      <path
         d="m 18.93938,260.31009 h -0.401699 v -0.36949 h 0.401699 z m -0.02274,2.47082 h -0.356223 v -2.11649 h 0.356223 z"
         id="path756" />
      <path
         d="m 21.425364,261.72361 q 0,0.51728 -0.265273,0.81666 -0.265273,0.29938 -0.710552,0.29938 -0.449068,0 -0.714341,-0.29938 -0.263378,-0.29938 -0.263378,-0.81666 0,-0.51728 0.263378,-0.81666 0.265273,-0.30127 0.714341,-0.30127 0.445279,0 0.710552,0.30127 0.265273,0.29938 0.265273,0.81666 z m -0.367592,0 q 0,-0.41117 -0.161059,-0.61012 -0.161058,-0.20085 -0.447174,-0.20085 -0.289905,0 -0.450963,0.20085 -0.159164,0.19895 -0.159164,0.61012 0,0.39791 0.161059,0.60445 0.161058,0.20463 0.449068,0.20463 0.284221,0 0.445279,-0.20274 0.162954,-0.20464 0.162954,-0.60634 z"
         id="path758" />
      <path
         d="m 23.746499,262.78091 h -0.356223 v -1.20509 q 0,-0.1459 -0.01705,-0.27285 -0.01705,-0.12885 -0.06253,-0.20085 -0.04737,-0.0796 -0.136426,-0.11748 -0.08906,-0.0398 -0.231166,-0.0398 -0.1459,0 -0.305064,0.072 -0.159163,0.072 -0.305063,0.1838 v 1.58026 h -0.356224 v -2.11649 h 0.356224 v 0.23495 q 0.166743,-0.13832 0.344854,-0.216 0.178112,-0.0777 0.365697,-0.0777 0.34296,0 0.522967,0.20653 0.180006,0.20654 0.180006,0.59497 z"
         id="path760" />
    </g>
  </g>
  <g
     inkscape:groupmode="layer"
     id="layer2"
     inkscape:label="components">
    <circle
       style="display:inline;opacity:1;vector-effect:none;fill:#ff0000;fill-opacity:1;fill-rule:evenodd;stroke:none;stroke-width:1;stroke-linecap:butt;stroke-linejoin:miter;stroke-miterlimit:4;stroke-dasharray:none;stroke-dashoffset:0;stroke-opacity:1;paint-order:normal"
       id="path4954"
       cx="15.24"
       cy="41.928192"
       r="4"
       inkscape:label="divisions" />
    <circle
       style="display:inline;vector-effect:none;fill:#ff0000;fill-opacity:1;fill-rule:evenodd;stroke:none;stroke-width:1;stroke-linecap:butt;stroke-linejoin:miter;stroke-miterlimit:4;stroke-dasharray:none;stroke-dashoffset:0;stroke-opacity:1;paint-order:normal"
       id="path4954-7"
       cx="15"
       cy="62.117165"
       r="4"
       inkscape:label="levels" />
    <circle
       style="display:inline;vector-effect:none;fill:#ff0000;fill-opacity:1;fill-rule:evenodd;stroke:none;stroke-width:1;stroke-linecap:butt;stroke-linejoin:miter;stroke-miterlimit:4;stroke-dasharray:none;stroke-dashoffset:0;stroke-opacity:1;paint-order:normal"
       id="path4954-7-0"
       cx="15"
       cy="83.710632"
       r="4"
       inkscape:label="rotation" />
    <circle
       r="4"
       cy="22.183573"
       cx="15.033246"
       id="circle4956"
       style="display:inline;opacity:1;vector-effect:none;fill:#00ff00;fill-opacity:1;fill-rule:evenodd;stroke:none;stroke-width:1;stroke-linecap:butt;stroke-linejoin:miter;stroke-miterlimit:4;stroke-dasharray:none;stroke-dashoffset:0;stroke-opacity:1;paint-order:normal"
       inkscape:label="input" />
    <circle
       style="display:inline;opacity:1;vector-effect:none;fill:#0000ff;fill-opacity:1;fill-rule:evenodd;stroke:none;stroke-width:1;stroke-linecap:butt;stroke-linejoin:miter;stroke-miterlimit:4;stroke-dasharray:none;stroke-dashoffset:0;stroke-opacity:1;paint-order:normal"
       id="circle4958"
       cx="15"
       cy="105.40453"
       r="4"
       inkscape:label="output" />
  </g>
</svg>
