<?xml version="1.0" encoding="UTF-8" standalone="no"?>
<!-- Created with Inkscape (http://www.inkscape.org/) -->

<svg
   width="30.48mm"
   height="128.5mm"
   viewBox="0 0 30.480002 128.50002"
   version="1.1"
   id="svg8"
   inkscape:version="1.2.1 (9c6d41e, 2022-07-14)"
   sodipodi:docname="edoQuant.svg"
   xmlns:inkscape="http://www.inkscape.org/namespaces/inkscape"
   xmlns:sodipodi="http://sodipodi.sourceforge.net/DTD/sodipodi-0.dtd"
   xmlns="http://www.w3.org/2000/svg"
   xmlns:svg="http://www.w3.org/2000/svg"
   xmlns:rdf="http://www.w3.org/1999/02/22-rdf-syntax-ns#"
   xmlns:cc="http://creativecommons.org/ns#"
   xmlns:dc="http://purl.org/dc/elements/1.1/">
  <defs
     id="defs2" />
  <sodipodi:namedview
     id="base"
     pagecolor="#ffffff"
     bordercolor="#666666"
     borderopacity="1.0"
     inkscape:pageopacity="0.0"
     inkscape:pageshadow="2"
     inkscape:zoom="1.2797037"
     inkscape:cx="31.257235"
     inkscape:cy="243.025"
     inkscape:document-units="mm"
     inkscape:current-layer="layer2"
     showgrid="false"
     units="mm"
     inkscape:snap-bbox="true"
     inkscape:snap-page="true"
     inkscape:bbox-nodes="false"
     inkscape:snap-bbox-edge-midpoints="false"
     inkscape:window-width="1728"
     inkscape:window-height="1006"
     inkscape:window-x="0"
     inkscape:window-y="38"
     inkscape:window-maximized="1"
     inkscape:snap-bbox-midpoints="true"
     inkscape:snap-nodes="false"
     inkscape:showpageshadow="2"
     inkscape:pagecheckerboard="0"
     inkscape:deskcolor="#d1d1d1" />
  <metadata
     id="metadata5">
    <rdf:RDF>
      <cc:Work
         rdf:about="">
        <dc:format>image/svg+xml</dc:format>
        <dc:type
           rdf:resource="http://purl.org/dc/dcmitype/StillImage" />
      </cc:Work>
    </rdf:RDF>
  </metadata>
  <g
     inkscape:label="Layer 1"
     inkscape:groupmode="layer"
     id="layer1"
     transform="translate(0,-168.49998)">
    <rect
       style="display:inline;opacity:1;vector-effect:none;fill:#e6e6e6;fill-opacity:1;fill-rule:evenodd;stroke:none;stroke-width:0.64935839;stroke-linecap:butt;stroke-linejoin:miter;stroke-miterlimit:4;stroke-dasharray:none;stroke-dashoffset:0;stroke-opacity:1;paint-order:normal"
       id="rect420"
       width="30.48"
       height="128.5"
       x="5.9211732e-17"
       y="168.49997" />
    <g
       aria-label="Sine"
       style="font-style:normal;font-variant:normal;font-weight:300;font-stretch:normal;font-size:4.93888855px;line-height:6.61458302px;font-family:'Gotham Rounded';-inkscape-font-specification:'Gotham Rounded Light';font-variant-ligatures:normal;font-variant-caps:normal;font-variant-numeric:normal;font-feature-settings:normal;text-align:center;letter-spacing:0px;word-spacing:0px;writing-mode:lr-tb;text-anchor:middle;display:inline;fill:#000000;fill-opacity:1;stroke:none;stroke-width:0.26458332px;stroke-linecap:butt;stroke-linejoin:miter;stroke-opacity:1"
       id="text4952"
       inkscape:label="text4952" />
    <g
       aria-label="edoQuant"
       id="text398"
       style="font-size:4.93889px;display:inline;stroke-width:0.264583">
      <path
         d="M 5.7382111,177.59683 H 3.6136203 q 0.04582,0.36415 0.2821533,0.57637 0.2363336,0.2098 0.5787762,0.2098 0.250803,0 0.4654325,-0.10369 0.2146295,-0.1037 0.3593236,-0.31833 l 0.4389052,0.19775 q -0.2073948,0.32315 -0.5450142,0.48955 -0.3352079,0.16398 -0.7307049,0.16398 -0.4099665,0 -0.7282934,-0.17122 -0.3183269,-0.17122 -0.4967828,-0.47749 -0.1760445,-0.30627 -0.1760445,-0.68971 0,-0.38103 0.1736329,-0.68729 0.1760444,-0.30627 0.4799019,-0.4775 0.3038575,-0.17363 0.6704157,-0.17363 0.4003202,0 0.696943,0.17846 0.2990343,0.17604 0.4702556,0.50643 0.1712213,0.32797 0.1856907,0.77652 z m -1.343243,-1.04662 q -0.2821534,0 -0.4943713,0.19052 -0.2122179,0.1881 -0.2725071,0.49919 H 5.214901 q -0.069936,-0.31109 -0.2966228,-0.49919 -0.2266873,-0.19052 -0.5233101,-0.19052 z"
         style="font-family:Rockwell;-inkscape-font-specification:Rockwell"
         id="path871" />
      <path
         d="m 9.2156913,178.29377 v 0.44373 H 8.2631222 v -0.37138 q -0.3810277,0.41479 -0.9091609,0.41479 -0.3665583,0 -0.6487116,-0.17122 -0.2797419,-0.17363 -0.4364937,-0.47026 -0.1543403,-0.29662 -0.1543403,-0.65594 0,-0.36656 0.1639865,-0.67524 0.1663982,-0.30868 0.4581978,-0.48955 0.2917997,-0.18328 0.6318307,-0.18328 0.2459799,0 0.4654325,0.0989 0.2218642,0.0989 0.429259,0.31109 v -1.00321 H 7.773574 v -0.43891 h 0.9839195 v 3.1905 z m -1.7676789,0.0434 q 0.2315105,0 0.4172012,-0.12299 0.1856907,-0.12299 0.2917996,-0.32797 0.106109,-0.20498 0.106109,-0.43891 0,-0.23633 -0.106109,-0.43167 -0.1061089,-0.19533 -0.2942112,-0.30868 -0.1881023,-0.11334 -0.4244359,-0.11334 -0.2290989,0 -0.4099664,0.12299 -0.178456,0.12058 -0.2821534,0.32315 -0.1036974,0.20016 -0.1036974,0.42926 0,0.24598 0.106109,0.44373 0.1061089,0.19775 0.2893881,0.31109 0.1832791,0.11334 0.4099664,0.11334 z"
         style="font-family:Rockwell;-inkscape-font-specification:Rockwell"
         id="path873" />
      <path
         d="m 12.126453,177.47384 q 0,0.36897 -0.176044,0.67524 -0.176045,0.30627 -0.479902,0.48473 -0.303858,0.17845 -0.672828,0.17845 -0.381027,0 -0.687296,-0.17845 -0.3062693,-0.17846 -0.4774906,-0.48473 -0.1688097,-0.30627 -0.1688097,-0.67524 0,-0.38585 0.1688097,-0.68971 0.1712213,-0.30385 0.4750786,-0.47508 0.303858,-0.17363 0.689708,-0.17363 0.373793,0 0.677651,0.18328 0.303857,0.18087 0.47749,0.48714 0.173633,0.30627 0.173633,0.668 z m -1.328774,0.8537 q 0.221865,0 0.407555,-0.11576 0.185691,-0.11575 0.289388,-0.31109 0.103698,-0.19534 0.103698,-0.42685 0,-0.22669 -0.103698,-0.42202 -0.103697,-0.19534 -0.289388,-0.31351 -0.18569,-0.12057 -0.412378,-0.12057 -0.221864,0 -0.407555,0.11816 -0.18569,0.11576 -0.291799,0.31351 -0.1061092,0.19774 -0.1061092,0.42443 0,0.22669 0.1061092,0.42444 0.106109,0.19775 0.294211,0.3135 0.188102,0.11576 0.409966,0.11576 z"
         style="font-family:Rockwell;-inkscape-font-specification:Rockwell"
         id="path875" />
      <path
         d="m 16.339461,176.90953 q 0,0.49438 -0.20016,0.89711 -0.20016,0.40273 -0.56913,0.66077 -0.366558,0.25562 -0.856106,0.30868 0.258037,0.11334 0.429259,0.16881 0.173633,0.0555 0.318327,0.0555 0.08682,0 0.195337,-0.0265 l -0.190514,0.45096 q -0.06029,0.0145 -0.144694,0.0145 -0.142283,0 -0.286977,-0.0458 -0.142282,-0.0434 -0.383439,-0.15675 -0.243568,-0.10852 -0.381028,-0.15675 -0.137459,-0.0458 -0.27733,-0.0458 -0.103697,0 -0.188102,0.0314 -0.08199,0.0338 -0.166398,0.0965 l -0.173633,-0.23151 q 0.207395,-0.1881 0.395497,-0.21704 -0.612538,-0.18328 -0.945335,-0.67524 -0.332796,-0.49196 -0.332796,-1.13826 0,-0.53296 0.236334,-0.95739 0.236333,-0.42444 0.660769,-0.66077 0.424436,-0.23875 0.964627,-0.23875 0.552249,0 0.98392,0.24357 0.43167,0.24116 0.670415,0.66559 0.241157,0.42444 0.241157,0.95739 z m -1.881022,1.40354 q 0.38585,0 0.675238,-0.20016 0.2918,-0.20016 0.448552,-0.52331 0.159163,-0.32315 0.159163,-0.68007 0,-0.37861 -0.168809,-0.69453 -0.166398,-0.31832 -0.467844,-0.5016 -0.301446,-0.18569 -0.682474,-0.18569 -0.364147,0 -0.648712,0.18086 -0.284565,0.17846 -0.441316,0.49196 -0.154341,0.31351 -0.154341,0.70418 0,0.40997 0.154341,0.73071 0.156751,0.32074 0.448551,0.49919 0.2918,0.17846 0.677651,0.17846 z"
         style="font-family:Rockwell;-inkscape-font-specification:Rockwell"
         id="path877" />
      <path
         d="m 17.931096,178.34683 q 0.335208,0 0.725882,-0.32556 v -1.37218 h -0.448552 v -0.44614 h 0.947746 v 2.09082 h 0.434082 v 0.44373 h -0.933276 v -0.2918 q -0.438906,0.33521 -0.834403,0.33521 -0.356912,0 -0.528133,-0.21222 -0.16881,-0.21221 -0.16881,-0.70417 v -1.21543 h -0.3545 v -0.44614 h 0.853695 v 1.76526 q 0,0.19534 0.06994,0.28698 0.07235,0.0916 0.236334,0.0916 z"
         style="font-family:Rockwell;-inkscape-font-specification:Rockwell"
         id="path879" />
      <path
         d="m 22.04523,177.09764 v 1.19613 h 0.424436 v 0.44373 h -0.863341 v -0.31109 q -0.361735,0.3545 -0.805463,0.3545 -0.233922,0 -0.429259,-0.10852 -0.192926,-0.10852 -0.311093,-0.28939 -0.115755,-0.18328 -0.115755,-0.40514 0,-0.23875 0.127813,-0.42444 0.130225,-0.1881 0.349678,-0.28938 0.219452,-0.10129 0.441316,-0.10129 0.371382,0 0.69212,0.21704 v -0.27251 q 0,-0.29662 -0.125401,-0.42443 -0.125402,-0.12782 -0.412378,-0.12782 -0.202572,0 -0.340031,0.0748 -0.135048,0.0724 -0.224276,0.22187 l -0.47749,-0.11817 q 0.161575,-0.30145 0.436493,-0.44855 0.274919,-0.14952 0.653535,-0.14952 0.508841,0 0.742763,0.23151 0.236333,0.23151 0.236333,0.73071 z m -1.176845,1.29983 q 0.366559,0 0.687297,-0.30627 v -0.29662 q -0.325561,-0.25321 -0.651123,-0.25321 -0.197749,0 -0.342443,0.1254 -0.142282,0.12299 -0.142282,0.31109 0,0.18087 0.125401,0.30145 0.125402,0.11816 0.32315,0.11816 z"
         style="font-family:Rockwell;-inkscape-font-specification:Rockwell"
         id="path881" />
      <path
         d="m 25.165799,177.03252 v 1.26125 h 0.424436 v 0.44373 h -0.92363 v -1.67362 q 0,-0.23875 -0.06994,-0.34245 -0.06752,-0.10369 -0.224276,-0.10369 -0.332796,0 -0.747586,0.32797 v 1.34806 h 0.436494 v 0.44373 h -1.374593 v -0.44373 h 0.44614 v -1.64468 h -0.44614 v -0.44614 h 0.938099 v 0.30626 q 0.465433,-0.34003 0.875399,-0.34003 0.340031,0 0.501606,0.20981 0.163987,0.20981 0.163987,0.65353 z"
         style="font-family:Rockwell;-inkscape-font-specification:Rockwell"
         id="path883" />
      <path
         d="m 27.140872,176.20295 v 0.44614 h -0.463021 v 1.32877 q 0,0.20739 0.04341,0.27009 0.04582,0.0603 0.15434,0.0603 0.132637,0 0.265273,-0.0458 v 0.45097 q -0.231511,0.0675 -0.373793,0.0675 -0.313504,0 -0.450963,-0.15675 -0.13746,-0.15916 -0.13746,-0.5426 v -1.43247 h -0.330384 v -0.44614 h 0.330384 v -0.38344 l 0.499195,-0.45579 v 0.83923 z"
         style="font-family:Rockwell;-inkscape-font-specification:Rockwell"
         id="path885" />
    </g>
    <g
       aria-label="input"
       id="text452"
       style="font-size:3.88056px;stroke-width:0.264583">
      <path
         d="m 10.74686,199.44099 h -0.401698 v -0.36948 h 0.401698 z m -0.02274,2.47083 h -0.356224 v -2.1165 h 0.356224 z"
         id="path888" />
      <path
         d="m 13.198737,201.91182 h -0.356223 v -1.2051 q 0,-0.1459 -0.01705,-0.27285 -0.01705,-0.12884 -0.06253,-0.20085 -0.04737,-0.0796 -0.136426,-0.11748 -0.08905,-0.0398 -0.231166,-0.0398 -0.1459,0 -0.305063,0.072 -0.159164,0.072 -0.305064,0.18379 v 1.58027 H 11.42899 v -2.1165 h 0.356223 v 0.23496 q 0.166743,-0.13832 0.344855,-0.21601 0.178111,-0.0777 0.365697,-0.0777 0.34296,0 0.522966,0.20654 0.180006,0.20653 0.180006,0.59497 z"
         id="path890" />
      <path
         d="m 15.74725,200.82799 q 0,0.25769 -0.0739,0.47181 -0.0739,0.21222 -0.208428,0.36001 -0.125057,0.14022 -0.29559,0.2179 -0.168638,0.0758 -0.358118,0.0758 -0.164848,0 -0.299379,-0.036 -0.132636,-0.036 -0.270957,-0.11179 v 0.88677 h -0.356223 v -2.89716 h 0.356223 v 0.22169 q 0.14211,-0.11937 0.318327,-0.19895 0.178112,-0.0815 0.378961,-0.0815 0.38275,0 0.594969,0.28991 0.214113,0.28801 0.214113,0.8015 z m -0.367593,0.009 q 0,-0.38276 -0.130741,-0.57224 -0.130742,-0.18948 -0.401699,-0.18948 -0.153479,0 -0.308853,0.0663 -0.155374,0.0663 -0.297484,0.17432 v 1.19942 q 0.151584,0.0682 0.259588,0.0928 0.109899,0.0246 0.248219,0.0246 0.297485,0 0.464228,-0.20085 0.166742,-0.20085 0.166742,-0.59496 z"
         id="path892" />
      <path
         d="m 18.057017,201.91182 h -0.356224 v -0.23496 q -0.180006,0.14211 -0.344854,0.21791 -0.164848,0.0758 -0.363803,0.0758 -0.333485,0 -0.519176,-0.20275 -0.185691,-0.20463 -0.185691,-0.59875 v -1.37374 h 0.356223 v 1.2051 q 0,0.16106 0.01516,0.27664 0.01516,0.11369 0.06442,0.19516 0.05116,0.0834 0.132636,0.12127 0.08148,0.0379 0.236851,0.0379 0.138321,0 0.301274,-0.072 0.164848,-0.072 0.306958,-0.1838 v -1.58027 h 0.356224 z"
         id="path894" />
      <path
         d="m 19.857081,201.89287 q -0.100425,0.0265 -0.219797,0.0436 -0.117478,0.0171 -0.210324,0.0171 -0.324011,0 -0.492649,-0.17433 -0.168637,-0.17432 -0.168637,-0.55896 v -1.12552 h -0.240641 v -0.29938 h 0.240641 v -0.60823 h 0.356223 v 0.60823 h 0.735184 v 0.29938 h -0.735184 v 0.96446 q 0,0.16674 0.0076,0.26148 0.0076,0.0928 0.05306,0.17432 0.04168,0.0758 0.113688,0.1118 0.0739,0.0341 0.223587,0.0341 0.08716,0 0.181901,-0.0246 0.09474,-0.0265 0.136426,-0.0436 h 0.01895 z"
         id="path896" />
    </g>
    <g
       aria-label="output"
       id="text452-4"
       style="font-size:3.88056px;stroke-width:0.264583">
      <path
         d="m 10.8236,282.38426 q 0,0.51728 -0.265272,0.81666 -0.265273,0.29938 -0.7105519,0.29938 -0.4490687,0 -0.7143414,-0.29938 -0.2633778,-0.29938 -0.2633778,-0.81666 0,-0.51728 0.2633778,-0.81666 0.2652727,-0.30128 0.7143414,-0.30128 0.4452789,0 0.7105519,0.30128 0.265272,0.29938 0.265272,0.81666 z m -0.367592,0 q 0,-0.41117 -0.161058,-0.61013 -0.161058,-0.20085 -0.4471739,-0.20085 -0.2899051,0 -0.4509635,0.20085 -0.1591636,0.19896 -0.1591636,0.61013 0,0.39791 0.1610584,0.60444 0.1610584,0.20464 0.4490687,0.20464 0.2842209,0 0.4452789,-0.20274 0.162953,-0.20464 0.162953,-0.60634 z"
         id="path936" />
      <path
         d="m 13.129578,283.44156 h -0.356223 v -0.23496 q -0.180007,0.14211 -0.344855,0.21791 -0.164848,0.0758 -0.363802,0.0758 -0.333486,0 -0.519177,-0.20275 -0.185691,-0.20464 -0.185691,-0.59875 v -1.37374 h 0.356224 v 1.2051 q 0,0.16106 0.01516,0.27664 0.01516,0.11369 0.06442,0.19516 0.05116,0.0834 0.132637,0.12127 0.08148,0.0379 0.23685,0.0379 0.138321,0 0.301274,-0.072 0.164848,-0.072 0.306959,-0.1838 v -1.58027 h 0.356223 z"
         id="path938" />
      <path
         d="m 14.929642,283.42261 q -0.100424,0.0265 -0.219797,0.0436 -0.117478,0.0171 -0.210323,0.0171 -0.324012,0 -0.492649,-0.17432 -0.168638,-0.17432 -0.168638,-0.55896 v -1.12552 h -0.24064 v -0.29938 h 0.24064 v -0.60823 h 0.356223 v 0.60823 h 0.735184 v 0.29938 h -0.735184 v 0.96446 q 0,0.16674 0.0076,0.26148 0.0076,0.0929 0.05305,0.17432 0.04169,0.0758 0.113688,0.1118 0.0739,0.0341 0.223587,0.0341 0.08716,0 0.181901,-0.0246 0.09474,-0.0265 0.136426,-0.0436 h 0.01895 z"
         id="path940" />
      <path
         d="m 17.222356,282.35773 q 0,0.25769 -0.0739,0.47181 -0.0739,0.21222 -0.208428,0.36001 -0.125057,0.14022 -0.29559,0.2179 -0.168637,0.0758 -0.358118,0.0758 -0.164848,0 -0.299379,-0.036 -0.132636,-0.036 -0.270957,-0.11179 v 0.88677 h -0.356223 v -2.89716 h 0.356223 v 0.22169 q 0.14211,-0.11937 0.318327,-0.19895 0.178112,-0.0815 0.378961,-0.0815 0.382751,0 0.594969,0.28991 0.214113,0.28801 0.214113,0.8015 z m -0.367592,0.009 q 0,-0.38275 -0.130742,-0.57223 -0.130741,-0.18948 -0.401698,-0.18948 -0.15348,0 -0.308854,0.0663 -0.155374,0.0663 -0.297484,0.17432 v 1.19941 q 0.151584,0.0682 0.259588,0.0928 0.109899,0.0246 0.24822,0.0246 0.297484,0 0.464227,-0.20085 0.166743,-0.20085 0.166743,-0.59497 z"
         id="path942" />
      <path
         d="m 19.532122,283.44156 h -0.356223 v -0.23496 q -0.180006,0.14211 -0.344854,0.21791 -0.164848,0.0758 -0.363803,0.0758 -0.333486,0 -0.519176,-0.20275 -0.185691,-0.20464 -0.185691,-0.59875 v -1.37374 h 0.356223 v 1.2051 q 0,0.16106 0.01516,0.27664 0.01516,0.11369 0.06442,0.19516 0.05116,0.0834 0.132636,0.12127 0.08148,0.0379 0.236851,0.0379 0.13832,0 0.301274,-0.072 0.164848,-0.072 0.306958,-0.1838 v -1.58027 h 0.356223 z"
         id="path944" />
      <path
         d="m 21.332186,283.42261 q -0.100424,0.0265 -0.219797,0.0436 -0.117478,0.0171 -0.210323,0.0171 -0.324012,0 -0.492649,-0.17432 -0.168638,-0.17432 -0.168638,-0.55896 v -1.12552 h -0.24064 v -0.29938 h 0.24064 v -0.60823 h 0.356223 v 0.60823 h 0.735184 v 0.29938 h -0.735184 v 0.96446 q 0,0.16674 0.0076,0.26148 0.0076,0.0929 0.05306,0.17432 0.04169,0.0758 0.113688,0.1118 0.0739,0.0341 0.223587,0.0341 0.08716,0 0.181901,-0.0246 0.09474,-0.0265 0.136426,-0.0436 h 0.01895 z"
         id="path946" />
    </g>
    <g
       aria-label="edo"
       id="text546"
       style="font-size:3.88056px;stroke-width:0.264583">
      <path
         d="m 13.680966,221.70236 h -1.559425 q 0,0.19517 0.05874,0.34107 0.05874,0.144 0.161059,0.23685 0.09853,0.0909 0.233061,0.13642 0.136426,0.0455 0.299379,0.0455 0.216008,0 0.43391,-0.0853 0.219798,-0.0872 0.312643,-0.17053 h 0.01895 v 0.38844 q -0.180006,0.0758 -0.367592,0.12695 -0.187586,0.0512 -0.394119,0.0512 -0.526756,0 -0.822346,-0.28422 -0.295589,-0.28612 -0.295589,-0.81098 0,-0.51918 0.282326,-0.82424 0.28422,-0.30506 0.746553,-0.30506 0.428226,0 0.659392,0.25011 0.233061,0.25012 0.233061,0.71055 z m -0.34675,-0.27285 q -0.0019,-0.28043 -0.14211,-0.43391 -0.138321,-0.15348 -0.422541,-0.15348 -0.286116,0 -0.456648,0.16864 -0.168638,0.16864 -0.191376,0.41875 z"
         id="path899" />
      <path
         d="m 15.937678,222.72366 h -0.356223 v -0.22169 q -0.153479,0.13264 -0.320222,0.20653 -0.166743,0.0739 -0.361908,0.0739 -0.378961,0 -0.602548,-0.2918 -0.221692,-0.2918 -0.221692,-0.80908 0,-0.26906 0.07579,-0.47938 0.07769,-0.21033 0.208429,-0.35812 0.128847,-0.14401 0.299379,-0.2198 0.172427,-0.0758 0.356223,-0.0758 0.166743,0 0.29559,0.036 0.128846,0.0341 0.270957,0.108 v -0.91708 h 0.356223 z m -0.356223,-0.52107 v -1.21457 q -0.144005,-0.0644 -0.257694,-0.0891 -0.113688,-0.0246 -0.248219,-0.0246 -0.299379,0 -0.466122,0.20843 -0.166743,0.20843 -0.166743,0.59118 0,0.37707 0.128847,0.57413 0.128847,0.19516 0.413067,0.19516 0.151585,0 0.306959,-0.0663 0.155374,-0.0682 0.289905,-0.17432 z"
         id="path901" />
      <path
         d="m 18.442609,221.66636 q 0,0.51728 -0.265272,0.81666 -0.265273,0.29938 -0.710552,0.29938 -0.449069,0 -0.714341,-0.29938 -0.263378,-0.29938 -0.263378,-0.81666 0,-0.51728 0.263378,-0.81666 0.265272,-0.30127 0.714341,-0.30127 0.445279,0 0.710552,0.30127 0.265272,0.29938 0.265272,0.81666 z m -0.367592,0 q 0,-0.41117 -0.161058,-0.61012 -0.161058,-0.20085 -0.447174,-0.20085 -0.289905,0 -0.450963,0.20085 -0.159164,0.19895 -0.159164,0.61012 0,0.39791 0.161058,0.60445 0.161059,0.20463 0.449069,0.20463 0.284221,0 0.445279,-0.20274 0.162953,-0.20464 0.162953,-0.60634 z"
         id="path903" />
    </g>
    <g
       aria-label="restrict"
       id="text546-0"
       style="font-size:3.88056px;stroke-width:0.264583">
      <path
         d="m 9.7416666,241.34227 h -0.018948 q -0.079582,-0.019 -0.155374,-0.0265 -0.073897,-0.009 -0.1762168,-0.009 -0.164848,0 -0.3183272,0.0739 -0.1534791,0.072 -0.2955895,0.18759 v 1.50258 H 8.4209877 v -2.1165 H 8.777211 v 0.31264 q 0.2122181,-0.17053 0.3732765,-0.24064 0.1629532,-0.072 0.3315908,-0.072 0.092846,0 0.1345312,0.006 0.041686,0.004 0.1250571,0.0171 z"
         id="path906" />
      <path
         d="m 11.848689,242.04903 h -1.559424 q 0,0.19516 0.05874,0.34106 0.05874,0.14401 0.161058,0.23685 0.09853,0.091 0.233061,0.13643 0.136426,0.0455 0.29938,0.0455 0.216007,0 0.43391,-0.0853 0.219797,-0.0872 0.312643,-0.17053 h 0.01895 v 0.38843 q -0.180007,0.0758 -0.367592,0.12695 -0.187586,0.0512 -0.39412,0.0512 -0.526756,0 -0.822345,-0.28422 -0.2955896,-0.28611 -0.2955896,-0.81097 0,-0.51918 0.2823256,-0.82424 0.284221,-0.30507 0.746553,-0.30507 0.428226,0 0.659392,0.25012 0.233061,0.25011 0.233061,0.71055 z m -0.346749,-0.27285 q -0.0019,-0.28043 -0.14211,-0.43391 -0.138321,-0.15348 -0.422542,-0.15348 -0.286115,0 -0.456648,0.16863 -0.168637,0.16864 -0.191375,0.41876 z"
         id="path908" />
      <path
         d="m 13.900763,242.4602 q 0,0.28991 -0.24064,0.4756 -0.238746,0.18569 -0.653708,0.18569 -0.234956,0 -0.432015,-0.0549 -0.195165,-0.0568 -0.327802,-0.12316 v -0.39981 h 0.01895 q 0.168638,0.12695 0.375172,0.20275 0.206533,0.0739 0.396014,0.0739 0.234956,0 0.367592,-0.0758 0.132636,-0.0758 0.132636,-0.23874 0,-0.12506 -0.072,-0.18948 -0.072,-0.0644 -0.276642,-0.1099 -0.07579,-0.0171 -0.198954,-0.0398 -0.121268,-0.0227 -0.221692,-0.0493 -0.278537,-0.0739 -0.396015,-0.21601 -0.115583,-0.144 -0.115583,-0.35243 0,-0.13074 0.05306,-0.24632 0.05495,-0.11559 0.164848,-0.20654 0.106109,-0.0891 0.269062,-0.14021 0.164848,-0.0531 0.367592,-0.0531 0.189481,0 0.382751,0.0474 0.195165,0.0455 0.324011,0.11179 v 0.38086 h -0.01895 q -0.136426,-0.10042 -0.33159,-0.16864 -0.195165,-0.0701 -0.382751,-0.0701 -0.195165,0 -0.329696,0.0758 -0.134531,0.0739 -0.134531,0.22169 0,0.13074 0.08148,0.19706 0.07958,0.0663 0.257694,0.108 0.09853,0.0227 0.219797,0.0455 0.123163,0.0227 0.204639,0.0417 0.24822,0.0568 0.382751,0.19517 0.134531,0.14021 0.134531,0.37138 z"
         id="path910" />
      <path
         d="m 15.509452,243.05138 q -0.100425,0.0265 -0.219797,0.0436 -0.117478,0.0171 -0.210324,0.0171 -0.324011,0 -0.492649,-0.17432 -0.168637,-0.17432 -0.168637,-0.55897 v -1.12551 h -0.240641 v -0.29938 h 0.240641 v -0.60823 h 0.356223 v 0.60823 h 0.735184 v 0.29938 h -0.735184 v 0.96446 q 0,0.16674 0.0076,0.26148 0.0076,0.0928 0.05305,0.17432 0.04169,0.0758 0.113688,0.11179 0.0739,0.0341 0.223587,0.0341 0.08716,0 0.181901,-0.0246 0.09474,-0.0265 0.136426,-0.0436 h 0.01895 z"
         id="path912" />
      <path
         d="m 17.260252,241.34227 h -0.01895 q -0.07958,-0.019 -0.155374,-0.0265 -0.0739,-0.009 -0.176217,-0.009 -0.164848,0 -0.318327,0.0739 -0.153479,0.072 -0.29559,0.18759 v 1.50258 h -0.356223 v -2.1165 h 0.356223 v 0.31264 q 0.212218,-0.17053 0.373277,-0.24064 0.162953,-0.072 0.331591,-0.072 0.09285,0 0.134531,0.006 0.04169,0.004 0.125057,0.0171 z"
         id="path914" />
      <path
         d="m 17.978383,240.5995 h -0.401699 v -0.36948 h 0.401699 z m -0.02274,2.47083 h -0.356223 v -2.1165 h 0.356223 z"
         id="path916" />
      <path
         d="m 20.225621,242.93769 q -0.178111,0.0853 -0.33917,0.13264 -0.159163,0.0474 -0.33917,0.0474 -0.229271,0 -0.420646,-0.0663 -0.191376,-0.0682 -0.327802,-0.20464 -0.13832,-0.13643 -0.214113,-0.34485 -0.07579,-0.20843 -0.07579,-0.48697 0,-0.51917 0.284221,-0.81476 0.286115,-0.29559 0.754132,-0.29559 0.181901,0 0.356223,0.0512 0.176217,0.0512 0.322117,0.12505 v 0.39602 h -0.01895 q -0.162953,-0.12695 -0.337275,-0.19517 -0.172427,-0.0682 -0.337275,-0.0682 -0.303169,0 -0.479386,0.20464 -0.174322,0.20274 -0.174322,0.59686 0,0.38275 0.170533,0.58929 0.172427,0.20463 0.483175,0.20463 0.108004,0 0.219797,-0.0284 0.111794,-0.0284 0.200849,-0.0739 0.07769,-0.0398 0.1459,-0.0834 0.06821,-0.0455 0.108004,-0.0777 h 0.01895 z"
         id="path918" />
      <path
         d="m 21.781255,243.05138 q -0.100424,0.0265 -0.219797,0.0436 -0.117478,0.0171 -0.210323,0.0171 -0.324012,0 -0.492649,-0.17432 -0.168638,-0.17432 -0.168638,-0.55897 v -1.12551 h -0.24064 v -0.29938 h 0.24064 v -0.60823 h 0.356223 v 0.60823 h 0.735184 v 0.29938 h -0.735184 v 0.96446 q 0,0.16674 0.0076,0.26148 0.0076,0.0928 0.05306,0.17432 0.04169,0.0758 0.113688,0.11179 0.0739,0.0341 0.223587,0.0341 0.08716,0 0.181901,-0.0246 0.09474,-0.0265 0.136426,-0.0436 h 0.01895 z"
         id="path920" />
    </g>
    <g
       aria-label="offset"
       id="text546-0-8"
       style="font-size:3.88056px;stroke-width:0.264583">
      <path
         d="m 11.721738,262.46962 q 0,0.51728 -0.265273,0.81666 -0.265273,0.29938 -0.710552,0.29938 -0.449069,0 -0.714341,-0.29938 -0.263378,-0.29938 -0.263378,-0.81666 0,-0.51729 0.263378,-0.81667 0.265272,-0.30127 0.714341,-0.30127 0.445279,0 0.710552,0.30127 0.265273,0.29938 0.265273,0.81667 z m -0.367593,0 q 0,-0.41118 -0.161058,-0.61013 -0.161058,-0.20085 -0.447174,-0.20085 -0.289905,0 -0.450963,0.20085 -0.159164,0.19895 -0.159164,0.61013 0,0.3979 0.161058,0.60444 0.161059,0.20464 0.449069,0.20464 0.284221,0 0.445279,-0.20275 0.162953,-0.20464 0.162953,-0.60633 z"
         id="path923" />
      <path
         d="m 13.411903,260.92345 h -0.01895 q -0.05874,-0.017 -0.153479,-0.0341 -0.09474,-0.0189 -0.166743,-0.0189 -0.229271,0 -0.333485,0.10232 -0.10232,0.10042 -0.10232,0.3657 v 0.072 h 0.642339 v 0.29938 h -0.63097 v 1.81712 h -0.356223 v -1.81712 h -0.24064 v -0.29938 h 0.24064 v -0.0701 q 0,-0.37706 0.187585,-0.57791 0.187586,-0.20275 0.541915,-0.20275 0.119372,0 0.214113,0.0114 0.09663,0.0114 0.176216,0.0265 z"
         id="path925" />
      <path
         d="m 14.776163,260.92345 h -0.01895 q -0.05874,-0.017 -0.15348,-0.0341 -0.09474,-0.0189 -0.166742,-0.0189 -0.229272,0 -0.333486,0.10232 -0.102319,0.10042 -0.102319,0.3657 v 0.072 h 0.642338 v 0.29938 h -0.63097 v 1.81712 h -0.356223 v -1.81712 h -0.24064 v -0.29938 h 0.24064 v -0.0701 q 0,-0.37706 0.187586,-0.57791 0.187585,-0.20275 0.541914,-0.20275 0.119373,0 0.214113,0.0114 0.09664,0.0114 0.176217,0.0265 z"
         id="path927" />
      <path
         d="m 16.513699,262.91679 q 0,0.2899 -0.24064,0.4756 -0.238746,0.18569 -0.653708,0.18569 -0.234956,0 -0.432015,-0.055 -0.195165,-0.0568 -0.327802,-0.12317 v -0.3998 h 0.01895 q 0.168638,0.12695 0.375172,0.20274 0.206533,0.0739 0.396014,0.0739 0.234956,0 0.367592,-0.0758 0.132636,-0.0758 0.132636,-0.23875 0,-0.12505 -0.072,-0.18948 -0.072,-0.0644 -0.276642,-0.10989 -0.07579,-0.0171 -0.198954,-0.0398 -0.121268,-0.0227 -0.221692,-0.0493 -0.278537,-0.0739 -0.396015,-0.21601 -0.115583,-0.144 -0.115583,-0.35243 0,-0.13074 0.05306,-0.24633 0.05495,-0.11558 0.164848,-0.20653 0.106109,-0.0891 0.269062,-0.14022 0.164848,-0.053 0.367592,-0.053 0.189481,0 0.382751,0.0474 0.195165,0.0455 0.324011,0.11179 v 0.38086 h -0.01895 q -0.136426,-0.10043 -0.33159,-0.16864 -0.195165,-0.0701 -0.382751,-0.0701 -0.195165,0 -0.329696,0.0758 -0.134531,0.0739 -0.134531,0.22169 0,0.13074 0.08148,0.19706 0.07958,0.0663 0.257693,0.108 0.09853,0.0227 0.219797,0.0455 0.123163,0.0227 0.204639,0.0417 0.24822,0.0568 0.382751,0.19517 0.134531,0.14021 0.134531,0.37138 z"
         id="path929" />
      <path
         d="m 18.795043,262.50562 h -1.559424 q 0,0.19516 0.05874,0.34106 0.05874,0.14401 0.161058,0.23685 0.09853,0.091 0.233061,0.13643 0.136426,0.0455 0.299379,0.0455 0.216008,0 0.433911,-0.0853 0.219797,-0.0872 0.312643,-0.17054 h 0.01895 v 0.38844 q -0.180007,0.0758 -0.367593,0.12695 -0.187585,0.0512 -0.394119,0.0512 -0.526756,0 -0.822345,-0.28422 -0.29559,-0.28611 -0.29559,-0.81098 0,-0.51917 0.282326,-0.82424 0.284221,-0.30506 0.746553,-0.30506 0.428226,0 0.659392,0.25011 0.233061,0.25012 0.233061,0.71056 z m -0.346749,-0.27286 q -0.0019,-0.28043 -0.14211,-0.43391 -0.138321,-0.15347 -0.422542,-0.15347 -0.286115,0 -0.456648,0.16863 -0.168637,0.16864 -0.191375,0.41875 z"
         id="path931" />
      <path
         d="m 20.434049,263.50797 q -0.100424,0.0265 -0.219797,0.0436 -0.117478,0.017 -0.210323,0.017 -0.324012,0 -0.49265,-0.17432 -0.168637,-0.17432 -0.168637,-0.55897 v -1.12551 h -0.24064 v -0.29938 h 0.24064 v -0.60823 h 0.356223 v 0.60823 h 0.735184 v 0.29938 h -0.735184 v 0.96445 q 0,0.16675 0.0076,0.26149 0.0076,0.0928 0.05306,0.17432 0.04169,0.0758 0.113688,0.11179 0.0739,0.0341 0.223587,0.0341 0.08716,0 0.181901,-0.0246 0.09474,-0.0265 0.136426,-0.0436 h 0.01895 z"
         id="path933" />
    </g>
  </g>
  <g
     inkscape:groupmode="layer"
     id="layer2"
     inkscape:label="components">
    <circle
       style="display:inline;opacity:1;vector-effect:none;fill:#ff0000;fill-opacity:1;fill-rule:evenodd;stroke:none;stroke-width:1;stroke-linecap:butt;stroke-linejoin:miter;stroke-miterlimit:4;stroke-dasharray:none;stroke-dashoffset:0;stroke-opacity:1;paint-order:normal"
       id="path4954"
       cx="15.101122"
       cy="42.580456"
       r="4"
       inkscape:label="edo" />
    <circle
       style="display:inline;vector-effect:none;fill:#ff0000;fill-opacity:1;fill-rule:evenodd;stroke:none;stroke-width:1;stroke-linecap:butt;stroke-linejoin:miter;stroke-miterlimit:4;stroke-dasharray:none;stroke-dashoffset:0;stroke-opacity:1;paint-order:normal"
       id="path4954-7"
       cx="15.101122"
       cy="62.977337"
       r="4"
       inkscape:label="restrict" />
    <circle
       style="display:inline;vector-effect:none;fill:#ff0000;fill-opacity:1;fill-rule:evenodd;stroke:none;stroke-width:1;stroke-linecap:butt;stroke-linejoin:miter;stroke-miterlimit:4;stroke-dasharray:none;stroke-dashoffset:0;stroke-opacity:1;paint-order:normal"
       id="path4954-7-0"
       cx="15.101122"
       cy="83.374222"
       r="4"
       inkscape:label="offset" />
    <circle
       r="4"
       cy="22.183573"
       cx="15.101122"
       id="circle4956"
       style="display:inline;opacity:1;vector-effect:none;fill:#00ff00;fill-opacity:1;fill-rule:evenodd;stroke:none;stroke-width:1;stroke-linecap:butt;stroke-linejoin:miter;stroke-miterlimit:4;stroke-dasharray:none;stroke-dashoffset:0;stroke-opacity:1;paint-order:normal"
       inkscape:label="input" />
    <circle
       style="display:inline;opacity:1;vector-effect:none;fill:#0000ff;fill-opacity:1;fill-rule:evenodd;stroke:none;stroke-width:1;stroke-linecap:butt;stroke-linejoin:miter;stroke-miterlimit:4;stroke-dasharray:none;stroke-dashoffset:0;stroke-opacity:1;paint-order:normal"
       id="circle4958"
       cx="15.101122"
       cy="103.7711"
       r="4"
       inkscape:label="output" />
  </g>
</svg>
